<?xml version="1.0" encoding="UTF-8"?>
<!DOCTYPE svg PUBLIC "-//W3C//DTD SVG 1.1//EN" "http://www.w3.org/Graphics/SVG/1.1/DTD/svg11.dtd">
<!-- Creator: CorelDRAW 2017 -->
<svg xmlns="http://www.w3.org/2000/svg" xml:space="preserve" width="1699px" height="655px" version="1.1" style="shape-rendering:geometricPrecision; text-rendering:geometricPrecision; image-rendering:optimizeQuality; fill-rule:evenodd; clip-rule:evenodd"
viewBox="0 0 758.15 292.21"
 xmlns:xlink="http://www.w3.org/1999/xlink">
 <defs>
  <style type="text/css">
   <![CDATA[
    .str1 {stroke:#2775AC;stroke-width:0.4;stroke-miterlimit:22.9256}
    .str10 {stroke:#1D3F69;stroke-width:0.4;stroke-miterlimit:22.9256}
    .str9 {stroke:#1A2E46;stroke-width:3.68;stroke-miterlimit:22.9256}
    .str6 {stroke:#D9DADA;stroke-width:0.18;stroke-miterlimit:22.9256}
    .str3 {stroke:#196194;stroke-width:0.06;stroke-miterlimit:22.9256}
    .str2 {stroke:#1A2E46;stroke-width:0.06;stroke-miterlimit:22.9256}
    .str0 {stroke:#80AADB;stroke-width:0.06;stroke-miterlimit:10}
    .str4 {stroke:#5B3A0C;stroke-width:0.09;stroke-miterlimit:22.9256}
    .str7 {stroke:#D9DADA;stroke-width:0.37;stroke-miterlimit:22.9256}
    .str5 {stroke:#E31E24;stroke-width:0.37;stroke-miterlimit:22.9256}
    .str8 {stroke:#D9DADA;stroke-width:0.37;stroke-miterlimit:22.9256}
    .fil8 {fill:none}
    .fil2 {fill:none;fill-rule:nonzero}
    .fil6 {fill:#FEFEFE}
    .fil12 {fill:#E31E24}
    .fil5 {fill:#2775AC}
    .fil7 {fill:#196194}
    .fil1 {fill:#1A2E46}
    .fil10 {fill:#D9DADA;fill-rule:nonzero}
    .fil9 {fill:#E31E24;fill-rule:nonzero}
    .fil4 {fill:#2775AC;fill-rule:nonzero}
    .fil11 {fill:#196194;fill-rule:nonzero}
    .fil3 {fill:#1A2E46;fill-rule:nonzero}
    .fil0 {fill:#1D3F69;fill-rule:nonzero}
   ]]>
  </style>
   <clipPath id="id0" style="clip-rule:nonzero">
    <path d="M142.95 264.39c-66.67,0 -120.91,-54.24 -120.91,-120.91 0,-66.67 54.24,-120.91 120.91,-120.91 66.66,0 120.9,54.24 120.9,120.91 0,66.67 -54.24,120.91 -120.9,120.91zm0 -232.44l0 0c-61.5,0 -111.54,50.03 -111.54,111.53 0,61.5 50.04,111.54 111.54,111.54 61.5,0 111.53,-50.04 111.53,-111.54 0,-61.5 -50.03,-111.53 -111.53,-111.53z"/>
   </clipPath>
     <clipPath id="id1">
      <path d="M172.02 108.81c-9.43,-15.55 -19.91,-29.02 -25.32,-35.66 -0.73,-0.89 -1.81,-1.41 -2.96,-1.41 -1.15,0 -2.23,0.52 -2.96,1.41 -5.41,6.64 -15.89,20.11 -25.31,35.67 -12.15,20.05 -18.31,36.63 -18.31,49.27 0,25.68 20.9,46.58 46.58,46.58 25.68,0 46.58,-20.9 46.58,-46.58 0,-12.65 -6.16,-29.23 -18.3,-49.28zm-21.89 78.7c-2.72,0.7 -5.54,1.05 -8.39,1.05 -17.4,0 -31.56,-13.15 -31.56,-29.32 0,-3.9 1.03,-8.46 3.06,-13.55 0.34,-0.86 1.32,-1.35 2.28,-1.14 0.97,0.21 1.61,1.05 1.51,1.96 -0.12,1.09 -0.18,2.16 -0.18,3.17 0,17.59 14.18,32.32 32.98,34.26 0.93,0.1 1.66,0.8 1.74,1.67 0.07,0.87 -0.53,1.67 -1.44,1.9z"/>
     </clipPath>
 </defs>
 <g id="Слой_x0020_1">
  <metadata id="CorelCorpID_0Corel-Layer"/>
  <path class="fil0" d="M142.95 264.39c-66.67,0 -120.91,-54.24 -120.91,-120.91 0,-66.67 54.24,-120.91 120.91,-120.91 66.66,0 120.9,54.24 120.9,120.91 0,66.67 -54.24,120.91 -120.9,120.91zm0 -232.44l0 0c-61.5,0 -111.54,50.03 -111.54,111.53 0,61.5 50.04,111.54 111.54,111.54 61.5,0 111.53,-50.04 111.53,-111.54 0,-61.5 -50.03,-111.53 -111.53,-111.53z"/>
  <g style="clip-path:url(#id0)">
   <g id="_2687296964592">
    <rect class="fil1" x="143.41" y="15.32" width="148.26" height="292.95"/>
   </g>
  </g>
  <path class="fil2" d="M142.95 264.39c-66.67,0 -120.91,-54.24 -120.91,-120.91 0,-66.67 54.24,-120.91 120.91,-120.91 66.66,0 120.9,54.24 120.9,120.91 0,66.67 -54.24,120.91 -120.9,120.91zm0 -232.44l0 0c-61.5,0 -111.54,50.03 -111.54,111.53 0,61.5 50.04,111.54 111.54,111.54 61.5,0 111.53,-50.04 111.53,-111.54 0,-61.5 -50.03,-111.53 -111.53,-111.53z"/>
  <polygon class="fil3 str0" points="142.94,39.94 142.94,145.4 130.61,122.47 "/>
  <polygon class="fil3 str0" points="142.95,39.94 142.95,145.4 155.28,122.47 "/>
  <polygon class="fil3 str0" points="142.94,250.59 142.94,145.12 130.61,168.05 "/>
  <polygon class="fil3 str0" points="142.95,250.59 142.95,145.12 155.28,168.05 "/>
  <path class="fil4 str1" d="M142.95 236.61c-50.38,0 -91.36,-40.98 -91.36,-91.35 0,-50.37 40.98,-91.35 91.36,-91.35 50.36,0 91.35,40.98 91.35,91.35 0,50.37 -40.99,91.35 -91.35,91.35zm0 -180.79l0 0c-49.32,0 -89.45,40.12 -89.45,89.44 0,49.32 40.13,89.45 89.45,89.45 49.31,0 89.43,-40.13 89.43,-89.45 0,-49.32 -40.12,-89.44 -89.43,-89.44z"/>
  <polygon class="fil3" points="130.85,122.34 142.65,43.73 142.65,144.28 "/>
  <path class="fil3 str2" d="M142.37 47.55l0 95.61 -11.18 -20.79 11.18 -74.82zm0.57 -7.61l0 0 -12.33 82.53 12.33 22.93 0 -105.46z"/>
  <polygon class="fil0" points="142.95,39.94 142.95,145.4 155.28,122.47 "/>
  <polygon class="fil0" points="142.94,250.59 142.94,145.12 130.61,168.05 "/>
  <polygon class="fil3" points="143.23,146.24 155.03,168.18 143.23,246.8 "/>
  <path class="fil3 str2" d="M143.52 147.37l11.17 20.78 -11.17 74.82 0 -95.6zm-0.57 -2.25l0 0 0 105.47 12.33 -82.54 -12.33 -22.93z"/>
  <polygon class="fil3 str0" points="248.27,145.25 142.81,145.25 165.73,132.92 "/>
  <polygon class="fil3 str0" points="248.27,145.27 142.81,145.27 165.73,157.6 "/>
  <polygon class="fil3 str0" points="37.62,145.25 143.09,145.25 120.16,132.92 "/>
  <polygon class="fil3 str0" points="37.62,145.27 143.09,145.27 120.16,157.6 "/>
  <polygon class="fil3" points="143.93,144.97 165.87,133.17 244.48,144.97 "/>
  <path class="fil3 str2" d="M165.83 133.51l74.82 11.18 -95.6 0 20.78 -11.18zm-0.1 -0.59l0 0 -22.92 12.33 105.46 0 -82.54 -12.33z"/>
  <polygon class="fil0" points="248.27,145.27 142.81,145.27 165.73,157.6 "/>
  <polygon class="fil0" points="37.62,145.25 143.09,145.25 120.16,132.92 "/>
  <polygon class="fil3" points="41.43,145.55 141.96,145.55 120.11,157.31 "/>
  <path class="fil3" d="M140.84 145.84l-20.78 11.17 -74.82 -11.17 95.6 0zm2.25 -0.57l0 0 -105.47 0 82.54 12.33 22.93 -12.33z"/>
  <polygon class="fil3" points="155.53,122.61 194.09,93.71 144.05,143.75 "/>
  <path class="fil3" d="M191.06 96.34l-45.83 45.83 10.49 -19.32 35.34 -26.51zm6.04 -5.24l0 0 -41.82 31.37 -12.41 22.86 54.23 -54.23z"/>
  <polygon class="fil0 str3" points="197.11,91.11 142.88,145.34 165.73,132.92 "/>
  <polygon class="fil0" points="88.79,199.42 143.02,145.18 120.16,157.6 "/>
  <polygon class="fil3" points="141.84,146.77 130.36,167.91 91.81,196.81 "/>
  <path class="fil3" d="M140.66 148.36l-10.49 19.31 -35.33 26.51 45.82 -45.82zm2.36 -3.17l0 0 -54.23 54.23 41.82 -31.37 12.41 -22.86z"/>
  <polygon class="fil0" points="88.79,91.1 143.02,145.33 130.61,122.47 "/>
  <polygon class="fil3" points="120.3,132.67 91.4,94.12 141.44,144.16 "/>
  <path class="fil3 str2" d="M94.03 97.15l45.82 45.83 -19.31 -10.5 -26.51 -35.33zm-5.24 -6.04l0 0 31.37 41.81 22.86 12.42 -54.23 -54.23z"/>
  <polygon class="fil3" points="144.46,146.36 165.6,157.85 194.5,196.4 "/>
  <path class="fil3" d="M146.04 147.55l19.31 10.49 26.51 35.33 -45.82 -45.82zm-3.16 -2.37l0 0 54.23 54.24 -31.38 -41.82 -22.85 -12.42z"/>
  <polygon class="fil0 str3" points="197.1,199.42 142.87,145.19 155.29,168.05 "/>
  <path class="fil3 str4" d="M156.81 145.4c0,7.12 -5.77,12.89 -12.89,12.89 -7.11,0 -12.88,-5.77 -12.88,-12.89 0,-7.11 5.77,-12.88 12.88,-12.88 7.12,0 12.89,5.77 12.89,12.88z"/>
  <path class="fil3" d="M149.82 145.4c0,3.26 -2.64,5.9 -5.9,5.9 -3.25,0 -5.89,-2.64 -5.89,-5.9 0,-3.25 2.64,-5.89 5.89,-5.89 3.26,0 5.9,2.64 5.9,5.89z"/>
  <polygon class="fil3" points="217.64,235.06 225.19,227.51 232.75,219.95 204.92,207.23 "/>
  <polygon class="fil0" points="80.98,83.29 68.26,55.46 60.71,63.01 53.15,70.57 "/>
  <polygon class="fil0" points="53.15,219.95 60.7,227.51 68.26,235.06 80.98,207.23 "/>
  <polygon class="fil3" points="204.92,83.29 232.75,70.57 225.19,63.02 217.64,55.46 "/>
  <path class="fil5" d="M171.86 108.89c-9.42,-15.56 -19.91,-29.02 -25.32,-35.66 -0.72,-0.89 -1.81,-1.41 -2.95,-1.41 -1.15,0 -2.24,0.52 -2.96,1.41 -5.41,6.64 -15.89,20.11 -25.32,35.67 -12.14,20.05 -18.3,36.62 -18.3,49.27 0,25.68 20.89,46.58 46.58,46.58 25.68,0 46.58,-20.9 46.58,-46.58 0,-12.65 -6.16,-29.23 -18.31,-49.28z"/>
  <path class="fil6" d="M121.41 138.98c-7.81,5.85 -12.27,2.24 -14,13.9 -0.88,5.88 -4.46,24.85 2.91,27.3 1.4,3.69 30.95,21.52 39.7,18.9 5.43,-1.63 11.01,-14.8 6.45,-22.3 -4.68,-7.68 -23.17,-24.17 -27.99,-34.09 -1.26,-2.58 -4.98,-5.28 -7.07,-3.71z"/>
  <g id="_2687296976880">
   <g>
    <path class="fil5" d="M172.02 108.81c-9.43,-15.55 -19.91,-29.02 -25.32,-35.66 -0.73,-0.89 -1.81,-1.41 -2.96,-1.41 -1.15,0 -2.23,0.52 -2.96,1.41 -5.41,6.64 -15.89,20.11 -25.31,35.67 -12.15,20.05 -18.31,36.63 -18.31,49.27 0,25.68 20.9,46.58 46.58,46.58 25.68,0 46.58,-20.9 46.58,-46.58 0,-12.65 -6.16,-29.23 -18.3,-49.28zm-21.89 78.7c-2.72,0.7 -5.54,1.05 -8.39,1.05 -17.4,0 -31.56,-13.15 -31.56,-29.32 0,-3.9 1.03,-8.46 3.06,-13.55 0.34,-0.86 1.32,-1.35 2.28,-1.14 0.97,0.21 1.61,1.05 1.51,1.96 -0.12,1.09 -0.18,2.16 -0.18,3.17 0,17.59 14.18,32.32 32.98,34.26 0.93,0.1 1.66,0.8 1.74,1.67 0.07,0.87 -0.53,1.67 -1.44,1.9z"/>
    <g style="clip-path:url(#id1)">
     <g>
      <polygon id="1" class="fil7" points="172.56,84.23 143.74,71.74 143.59,206.85 164.77,223.61 216.22,173.72 "/>
     </g>
    </g>
    <path class="fil8" d="M172.02 108.81c-9.43,-15.55 -19.91,-29.02 -25.32,-35.66 -0.73,-0.89 -1.81,-1.41 -2.96,-1.41 -1.15,0 -2.23,0.52 -2.96,1.41 -5.41,6.64 -15.89,20.11 -25.31,35.67 -12.15,20.05 -18.31,36.63 -18.31,49.27 0,25.68 20.9,46.58 46.58,46.58 25.68,0 46.58,-20.9 46.58,-46.58 0,-12.65 -6.16,-29.23 -18.3,-49.28zm-21.89 78.7c-2.72,0.7 -5.54,1.05 -8.39,1.05 -17.4,0 -31.56,-13.15 -31.56,-29.32 0,-3.9 1.03,-8.46 3.06,-13.55 0.34,-0.86 1.32,-1.35 2.28,-1.14 0.97,0.21 1.61,1.05 1.51,1.96 -0.12,1.09 -0.18,2.16 -0.18,3.17 0,17.59 14.18,32.32 32.98,34.26 0.93,0.1 1.66,0.8 1.74,1.67 0.07,0.87 -0.53,1.67 -1.44,1.9z"/>
   </g>
   <g>
   </g>
   <g>
   </g>
   <g>
   </g>
   <g>
   </g>
   <g>
   </g>
   <g>
   </g>
   <g>
   </g>
   <g>
   </g>
   <g>
   </g>
   <g>
   </g>
   <g>
   </g>
   <g>
   </g>
   <g>
   </g>
   <g>
   </g>
   <g>
   </g>
  </g>
  <path class="fil9" d="M149.73 291.12c-4.02,0 -7.05,-3.34 -7.05,-8.94 0,-4.44 2.31,-7.57 6.46,-7.57 3.93,0 6.82,3.41 6.82,8.57 0,6.45 -3.64,7.94 -6.23,7.94zm-13.4 -15.34c0.04,-0.82 0.23,-1.22 0.86,-1.33 0.28,-0.05 0.42,-0.07 0.58,-0.07 0.1,0 0.19,-0.05 0.19,-0.14 0,-0.14 -0.12,-0.19 -0.37,-0.19 -0.7,0 -2.18,0.07 -2.29,0.07 -0.12,0 -1.52,-0.07 -2.29,-0.07 -0.26,0 -0.37,0.05 -0.37,0.19 0,0.09 0.09,0.14 0.18,0.14 0.17,0 0.47,0.02 0.73,0.09 0.51,0.12 0.74,0.52 0.79,1.31 0.05,0.75 0.05,1.4 0.05,5.04l0 4.11c0,2.24 0,4.09 -0.12,5.07 -0.09,0.68 -0.23,1.21 -0.7,1.31 -0.21,0.04 -0.47,0.07 -0.61,0.07 -0.21,0 -0.25,0.07 -0.25,0.14 0,0.14 0.11,0.18 0.37,0.18 0.7,0 2.1,-0.07 2.22,-0.07 0.11,0 1.61,0.07 2.89,0.07 0.26,0 0.35,-0.07 0.35,-0.18 0,-0.07 -0.07,-0.14 -0.28,-0.14 -0.14,0 -0.63,-0.05 -0.95,-0.1 -0.7,-0.09 -0.84,-0.6 -0.91,-1.28 -0.12,-0.98 -0.12,-2.83 -0.12,-5.07l0 -2.36c0,-0.11 0.07,-0.14 0.14,-0.14l3.97 0c0.07,0 0.16,0.05 0.16,0.14 -0.09,4.88 3.22,9.46 8.83,9.46 5.49,0 8.82,-4.06 8.82,-9.48 0,-4.13 -3.17,-8.83 -8.78,-8.83 -5.13,0 -8.12,3.41 -8.77,7.52 0,0.12 -0.1,0.14 -0.17,0.14l-4.06 0c-0.07,0 -0.14,-0.02 -0.14,-0.14l0 -0.56c0,-2.89 0.02,-4.15 0.05,-4.9z"/>
  <path id="1" class="fil2 str5" d="M149.73 291.12c-4.02,0 -7.05,-3.34 -7.05,-8.94 0,-4.44 2.31,-7.57 6.46,-7.57 3.93,0 6.82,3.41 6.82,8.57 0,6.45 -3.64,7.94 -6.23,7.94zm-13.4 -15.34c0.04,-0.82 0.23,-1.22 0.86,-1.33 0.28,-0.05 0.42,-0.07 0.58,-0.07 0.1,0 0.19,-0.05 0.19,-0.14 0,-0.14 -0.12,-0.19 -0.37,-0.19 -0.7,0 -2.18,0.07 -2.29,0.07 -0.12,0 -1.52,-0.07 -2.29,-0.07 -0.26,0 -0.37,0.05 -0.37,0.19 0,0.09 0.09,0.14 0.18,0.14 0.17,0 0.47,0.02 0.73,0.09 0.51,0.12 0.74,0.52 0.79,1.31 0.05,0.75 0.05,1.4 0.05,5.04l0 4.11c0,2.24 0,4.09 -0.12,5.07 -0.09,0.68 -0.23,1.21 -0.7,1.31 -0.21,0.04 -0.47,0.07 -0.61,0.07 -0.21,0 -0.25,0.07 -0.25,0.14 0,0.14 0.11,0.18 0.37,0.18 0.7,0 2.1,-0.07 2.22,-0.07 0.11,0 1.61,0.07 2.89,0.07 0.26,0 0.35,-0.07 0.35,-0.18 0,-0.07 -0.07,-0.14 -0.28,-0.14 -0.14,0 -0.63,-0.05 -0.95,-0.1 -0.7,-0.09 -0.84,-0.6 -0.91,-1.28 -0.12,-0.98 -0.12,-2.83 -0.12,-5.07l0 -2.36c0,-0.11 0.07,-0.14 0.14,-0.14l3.97 0c0.07,0 0.16,0.05 0.16,0.14 -0.09,4.88 3.22,9.46 8.83,9.46 5.49,0 8.82,-4.06 8.82,-9.48 0,-4.13 -3.17,-8.83 -8.78,-8.83 -5.13,0 -8.12,3.41 -8.77,7.52 0,0.12 -0.1,0.14 -0.17,0.14l-4.06 0c-0.07,0 -0.14,-0.02 -0.14,-0.14l0 -0.56c0,-2.89 0.02,-4.15 0.05,-4.9z"/>
  <path class="fil10" d="M140.86 15.64c1.3,0 2.87,-0.11 3.68,-0.46 0.33,-0.14 0.4,-0.21 0.54,-0.59 0.17,-0.51 0.47,-2.4 0.47,-2.59 0,-0.16 0,-0.33 -0.12,-0.33 -0.14,0 -0.21,0.12 -0.25,0.35 -0.12,0.66 -0.36,1.24 -0.78,1.68 -0.81,0.8 -1.98,0.96 -3.57,0.96 -4.11,0 -7.26,-3.41 -7.26,-7.28 0,-2.06 0.35,-3.74 1.87,-5.12 0.7,-0.63 1.89,-1.35 4.48,-1.35 1.8,0 3.43,0.58 4.13,1.19 0.59,0.44 0.91,1.35 0.91,2.03 0,0.31 0.03,0.45 0.19,0.45 0.12,0 0.17,-0.12 0.19,-0.45 0.02,-0.28 0.02,-1.49 0.05,-2.15 0.04,-0.74 0.11,-0.95 0.11,-1.14 0,-0.12 -0.02,-0.23 -0.21,-0.23 -0.56,-0.03 -1.31,-0.14 -2.05,-0.26 -1.15,-0.16 -2.01,-0.26 -3.09,-0.26 -3.12,0 -5.02,0.87 -6.28,2.08 -1.84,1.77 -2.35,4.09 -2.35,5.39 0,1.94 0.51,4.23 2.49,5.96 1.66,1.42 3.76,2.12 6.85,2.12z"/>
  <path id="1" class="fil2 str6" d="M140.86 15.64c1.3,0 2.87,-0.11 3.68,-0.46 0.33,-0.14 0.4,-0.21 0.54,-0.59 0.17,-0.51 0.47,-2.4 0.47,-2.59 0,-0.16 0,-0.33 -0.12,-0.33 -0.14,0 -0.21,0.12 -0.25,0.35 -0.12,0.66 -0.36,1.24 -0.78,1.68 -0.81,0.8 -1.98,0.96 -3.57,0.96 -4.11,0 -7.26,-3.41 -7.26,-7.28 0,-2.06 0.35,-3.74 1.87,-5.12 0.7,-0.63 1.89,-1.35 4.48,-1.35 1.8,0 3.43,0.58 4.13,1.19 0.59,0.44 0.91,1.35 0.91,2.03 0,0.31 0.03,0.45 0.19,0.45 0.12,0 0.17,-0.12 0.19,-0.45 0.02,-0.28 0.02,-1.49 0.05,-2.15 0.04,-0.74 0.11,-0.95 0.11,-1.14 0,-0.12 -0.02,-0.23 -0.21,-0.23 -0.56,-0.03 -1.31,-0.14 -2.05,-0.26 -1.15,-0.16 -2.01,-0.26 -3.09,-0.26 -3.12,0 -5.02,0.87 -6.28,2.08 -1.84,1.77 -2.35,4.09 -2.35,5.39 0,1.94 0.51,4.23 2.49,5.96 1.66,1.42 3.76,2.12 6.85,2.12z"/>
  <path class="fil10" d="M4.12 154.28c4.38,0 7.17,-2.39 7.17,-5.58 0,-2.9 -2.95,-4.22 -4.63,-4.52 -0.05,0 -0.08,-0.03 0,-0.06 1.46,-0.51 3.3,-1.86 3.3,-4.17 0,-1.43 -1.03,-3.7 -4.98,-3.7 -1.19,0 -2,0.16 -2.84,0.38 -0.54,0.1 -0.95,0.21 -1.22,0.27 -0.19,0.05 -0.21,0.21 -0.21,0.46 0,0.51 0.08,1.59 0.08,2.41 0,0.24 0.1,0.32 0.19,0.32 0.13,0 0.19,-0.08 0.21,-0.35 0.06,-1.57 0.92,-2.65 3.01,-2.65 2.81,0 3.6,1.86 3.6,3.51 0,2.2 -1.33,3.36 -3.63,3.55 -0.59,0.08 -0.87,0.16 -0.87,0.3 0,0.16 0.25,0.22 0.87,0.24 2.46,0.11 4.76,1.49 4.76,4.6 0,2.77 -1.81,4.17 -4.46,4.17 -2.44,0 -3.68,-1.11 -3.79,-2.97 -0.03,-0.36 -0.08,-0.36 -0.19,-0.36 -0.11,0 -0.14,0.06 -0.19,0.33 -0.08,0.51 -0.14,1.68 -0.11,2.46 0,0.3 0.11,0.57 0.46,0.76 0.65,0.3 1.79,0.6 3.47,0.6z"/>
  <path id="1" class="fil2 str7" d="M4.12 154.28c4.38,0 7.17,-2.39 7.17,-5.58 0,-2.9 -2.95,-4.22 -4.63,-4.52 -0.05,0 -0.08,-0.03 0,-0.06 1.46,-0.51 3.3,-1.86 3.3,-4.17 0,-1.43 -1.03,-3.7 -4.98,-3.7 -1.19,0 -2,0.16 -2.84,0.38 -0.54,0.1 -0.95,0.21 -1.22,0.27 -0.19,0.05 -0.21,0.21 -0.21,0.46 0,0.51 0.08,1.59 0.08,2.41 0,0.24 0.1,0.32 0.19,0.32 0.13,0 0.19,-0.08 0.21,-0.35 0.06,-1.57 0.92,-2.65 3.01,-2.65 2.81,0 3.6,1.86 3.6,3.51 0,2.2 -1.33,3.36 -3.63,3.55 -0.59,0.08 -0.87,0.16 -0.87,0.3 0,0.16 0.25,0.22 0.87,0.24 2.46,0.11 4.76,1.49 4.76,4.6 0,2.77 -1.81,4.17 -4.46,4.17 -2.44,0 -3.68,-1.11 -3.79,-2.97 -0.03,-0.36 -0.08,-0.36 -0.19,-0.36 -0.11,0 -0.14,0.06 -0.19,0.33 -0.08,0.51 -0.14,1.68 -0.11,2.46 0,0.3 0.11,0.57 0.46,0.76 0.65,0.3 1.79,0.6 3.47,0.6z"/>
  <path class="fil10" d="M275.18 147.21c0,2.09 0,3.9 -0.13,4.89 -0.08,0.64 -0.24,1.2 -0.69,1.28 -0.22,0.05 -0.3,0.05 -0.48,0.05 -0.35,0 -0.38,0.14 -0.38,0.22 0,0.11 0.14,0.16 0.38,0.16 0.88,0 1.57,-0.08 2.4,-0.08 0.11,0 0.75,0.03 1.5,0.08 0.69,0 1.22,0.05 1.65,0.05 4.06,0 6.06,-2.48 6.06,-4.97 0,-2.61 -2.29,-4.24 -4.08,-4.78 1.12,-0.88 2.24,-2.13 2.24,-4.11 0,-1.15 -0.8,-3.36 -4.81,-3.36 -1.04,0 -1.92,0.08 -2.56,0.08 -0.05,0 -1.66,-0.08 -2.78,-0.08 -0.24,0 -0.4,0.05 -0.4,0.18 0,0.11 0.11,0.19 0.35,0.19 0.05,0 0.43,0.03 0.64,0.05 0.8,0.16 0.99,0.54 1.04,1.26 0.05,0.72 0.05,1.39 0.05,4.89l0 4zm2.09 -9.48c0,-0.13 0.08,-0.19 0.32,-0.24 0.24,-0.08 0.8,-0.13 1.01,-0.13 2.27,0 3.1,2.05 3.1,3.9 0,0.88 -0.27,1.63 -0.69,2.13 -0.51,0.56 -0.91,0.64 -2.27,0.64 -0.88,0 -1.18,-0.05 -1.34,-0.08 -0.08,-0.05 -0.13,-0.08 -0.13,-0.26l0 -5.96zm0 7.21c0,-0.13 0.05,-0.16 0.13,-0.16 0.38,-0.05 1.31,-0.05 1.76,0 0.54,0.06 1.02,0.11 1.82,0.59 1.82,1.23 2.3,3.28 2.3,4.65 0,2.45 -2.01,3.01 -3.15,3.01 -0.27,0 -1.34,-0.02 -1.98,-0.34 -0.8,-0.35 -0.78,-0.7 -0.86,-1.87 -0.02,-0.22 -0.02,-3.15 -0.02,-4.84l0 -1.04z"/>
  <path id="1" class="fil2 str8" d="M275.18 147.21c0,2.09 0,3.9 -0.13,4.89 -0.08,0.64 -0.24,1.2 -0.69,1.28 -0.22,0.05 -0.3,0.05 -0.48,0.05 -0.35,0 -0.38,0.14 -0.38,0.22 0,0.11 0.14,0.16 0.38,0.16 0.88,0 1.57,-0.08 2.4,-0.08 0.11,0 0.75,0.03 1.5,0.08 0.69,0 1.22,0.05 1.65,0.05 4.06,0 6.06,-2.48 6.06,-4.97 0,-2.61 -2.29,-4.24 -4.08,-4.78 1.12,-0.88 2.24,-2.13 2.24,-4.11 0,-1.15 -0.8,-3.36 -4.81,-3.36 -1.04,0 -1.92,0.08 -2.56,0.08 -0.05,0 -1.66,-0.08 -2.78,-0.08 -0.24,0 -0.4,0.05 -0.4,0.18 0,0.11 0.11,0.19 0.35,0.19 0.05,0 0.43,0.03 0.64,0.05 0.8,0.16 0.99,0.54 1.04,1.26 0.05,0.72 0.05,1.39 0.05,4.89l0 4zm2.09 -9.48c0,-0.13 0.08,-0.19 0.32,-0.24 0.24,-0.08 0.8,-0.13 1.01,-0.13 2.27,0 3.1,2.05 3.1,3.9 0,0.88 -0.27,1.63 -0.69,2.13 -0.51,0.56 -0.91,0.64 -2.27,0.64 -0.88,0 -1.18,-0.05 -1.34,-0.08 -0.08,-0.05 -0.13,-0.08 -0.13,-0.26l0 -5.96zm0 7.21c0,-0.13 0.05,-0.16 0.13,-0.16 0.38,-0.05 1.31,-0.05 1.76,0 0.54,0.06 1.02,0.11 1.82,0.59 1.82,1.23 2.3,3.28 2.3,4.65 0,2.45 -2.01,3.01 -3.15,3.01 -0.27,0 -1.34,-0.02 -1.98,-0.34 -0.8,-0.35 -0.78,-0.7 -0.86,-1.87 -0.02,-0.22 -0.02,-3.15 -0.02,-4.84l0 -1.04z"/>
  <path class="fil3" d="M423.44 192.86c-27.29,0 -47.92,-22.69 -47.92,-60.77 0,-30.14 15.71,-51.4 43.95,-51.4 26.66,0 46.33,23.16 46.33,58.23 0,43.79 -24.75,53.94 -42.36,53.94zm-91.07 -104.24c0.31,-5.55 1.58,-8.25 5.87,-9.04 1.9,-0.32 2.85,-0.48 3.96,-0.48 0.64,0 1.27,-0.32 1.27,-0.95 0,-0.95 -0.79,-1.27 -2.54,-1.27 -4.76,0 -14.75,0.48 -15.54,0.48 -0.8,0 -10.32,-0.48 -15.55,-0.48 -1.75,0 -2.54,0.32 -2.54,1.27 0,0.63 0.63,0.95 1.27,0.95 1.11,0 3.17,0.16 4.92,0.64 3.49,0.79 5.07,3.49 5.39,8.88 0.32,5.08 0.32,9.52 0.32,34.27l0 27.93c0,15.23 0,27.76 -0.8,34.43 -0.63,4.6 -1.58,8.25 -4.76,8.88 -1.42,0.32 -3.17,0.48 -4.12,0.48 -1.43,0 -1.75,0.47 -1.75,0.95 0,0.95 0.8,1.27 2.54,1.27 4.76,0 14.28,-0.48 15.08,-0.48 0.79,0 10.94,0.48 19.67,0.48 1.74,0 2.38,-0.48 2.38,-1.27 0,-0.48 -0.48,-0.95 -1.9,-0.95 -0.96,0 -4.29,-0.32 -6.51,-0.64 -4.76,-0.63 -5.71,-4.12 -6.19,-8.72 -0.79,-6.67 -0.79,-19.2 -0.79,-34.43l0 -16.03c0,-0.79 0.48,-0.95 0.95,-0.95l26.97 0c0.48,0 1.11,0.32 1.11,0.95 -0.63,33.16 21.9,64.26 59.98,64.26 37.28,0 59.97,-27.61 59.97,-64.42 0,-28.08 -21.58,-59.97 -59.65,-59.97 -34.91,0 -55.22,23.16 -59.66,51.09 0,0.79 -0.64,0.95 -1.11,0.95l-27.61 0c-0.47,0 -0.95,-0.16 -0.95,-0.95l0 -3.81c0,-19.67 0.16,-28.24 0.32,-33.32z"/>
  <path id="1" class="fil3" d="M531.33 127.18c-0.48,0 -0.95,-0.16 -0.95,-0.96l0 -3.33c0,-24.75 0,-29.19 0.31,-34.27 0.32,-5.55 1.59,-8.25 5.87,-9.04 1.91,-0.32 2.86,-0.48 3.97,-0.48 0.64,0 1.27,-0.32 1.27,-0.95 0,-0.95 -0.79,-1.27 -2.54,-1.27 -4.76,0 -14.75,0.48 -15.55,0.48 -0.79,0 -10.79,-0.48 -17.93,-0.48 -1.74,0 -2.53,0.32 -2.53,1.27 0,0.63 0.63,0.95 1.26,0.95 1.43,0 4.13,0.16 5.4,0.48 5.24,1.11 6.5,3.65 6.82,9.04 0.32,5.08 0.32,9.52 0.32,34.27l0 27.93c0,15.23 0,27.76 -0.79,34.43 -0.64,4.6 -1.43,8.09 -4.61,8.72 -1.42,0.32 -3.33,0.64 -4.76,0.64 -0.95,0 -1.26,0.47 -1.26,0.95 0,0.95 0.79,1.27 2.53,1.27 4.76,0 14.76,-0.48 15.55,-0.48 0.8,0 10.79,0.48 19.52,0.48 1.74,0 2.54,-0.48 2.54,-1.27 0,-0.48 -0.32,-0.95 -1.27,-0.95 -1.43,0 -4.92,-0.32 -7.14,-0.64 -4.76,-0.63 -5.71,-4.12 -6.19,-8.72 -0.79,-6.67 -0.79,-19.2 -0.79,-34.43l0 -16.66c0,-0.8 0.47,-0.96 0.95,-0.96l67.27 0c0.48,0 0.95,0.32 0.95,0.96l0 16.66c0,15.23 0,27.76 -0.79,34.43 -0.63,4.6 -1.43,8.09 -4.6,8.72 -1.43,0.32 -3.33,0.64 -4.76,0.64 -0.95,0 -1.27,0.47 -1.27,0.95 0,0.95 0.79,1.27 2.54,1.27 4.76,0 14.75,-0.48 15.55,-0.48 0.79,0 10.79,0.48 19.51,0.48 1.75,0 2.54,-0.48 2.54,-1.27 0,-0.48 -0.32,-0.95 -1.27,-0.95 -1.43,0 -4.92,-0.32 -7.14,-0.64 -4.76,-0.63 -5.71,-4.12 -6.19,-8.72 -0.79,-6.67 -0.79,-19.2 -0.79,-34.43l0 -27.93c0,-24.75 0,-29.19 0.32,-34.27 0.32,-5.55 1.59,-8.25 5.87,-9.04 1.9,-0.32 2.85,-0.48 3.97,-0.48 0.63,0 1.26,-0.32 1.26,-0.95 0,-0.95 -0.79,-1.27 -2.53,-1.27 -4.76,0 -14.76,0.48 -15.55,0.48 -0.8,0 -10.79,-0.48 -17.93,-0.48 -1.75,0 -2.54,0.32 -2.54,1.27 0,0.63 0.63,0.95 1.27,0.95 1.43,0 4.12,0.16 5.39,0.48 5.24,1.11 6.51,3.65 6.83,9.04 0.31,5.08 0.31,9.52 0.31,34.27l0 3.33c0,0.8 -0.47,0.96 -0.95,0.96l-67.27 0z"/>
  <path id="2" class="fil3" d="M720.14 199.05c10.15,0 22.21,-1.11 28.56,-3.65 2.85,-1.27 3.17,-1.59 4.12,-4.6 1.59,-5.4 3.49,-19.2 3.49,-20.31 0,-1.27 -0.32,-2.38 -1.11,-2.38 -0.95,0 -1.27,0.63 -1.59,2.38 -0.47,2.86 -2.53,9.84 -5.87,13.33 -6.34,6.5 -15.7,7.93 -27.6,7.93 -33.96,0 -57.28,-27.76 -57.28,-58.07 0,-16.18 2.7,-30.3 14.28,-41.41 5.55,-5.39 15.39,-11.58 36.49,-11.58 13.96,0 26.18,4.28 31.73,9.04 4.13,3.49 6.67,10 6.67,16.18 0,2.23 0.16,3.34 1.27,3.34 0.95,0 1.27,-0.96 1.43,-3.34 0.15,-2.38 0.15,-11.1 0.47,-16.34 0.32,-5.71 0.79,-7.61 0.79,-8.88 0,-0.95 -0.31,-1.59 -1.42,-1.75 -5.87,-0.79 -10.79,-1.27 -16.82,-2.38 -7.78,-1.43 -16.66,-1.9 -23.01,-1.9 -24.43,0 -38.87,7.46 -48.39,16.97 -14.12,14.13 -17.77,32.69 -17.77,43.32 0,15.07 3.81,33.16 19.2,46.96 12.53,11.27 28.56,17.14 52.36,17.14z"/>
  <path id="3" class="fil2 str9" d="M423.44 192.86c-27.29,0 -47.92,-22.69 -47.92,-60.77 0,-30.14 15.71,-51.4 43.95,-51.4 26.66,0 46.33,23.16 46.33,58.23 0,43.79 -24.75,53.94 -42.36,53.94zm-91.07 -104.24c0.31,-5.55 1.58,-8.25 5.87,-9.04 1.9,-0.32 2.85,-0.48 3.96,-0.48 0.64,0 1.27,-0.32 1.27,-0.95 0,-0.95 -0.79,-1.27 -2.54,-1.27 -4.76,0 -14.75,0.48 -15.54,0.48 -0.8,0 -10.32,-0.48 -15.55,-0.48 -1.75,0 -2.54,0.32 -2.54,1.27 0,0.63 0.63,0.95 1.27,0.95 1.11,0 3.17,0.16 4.92,0.64 3.49,0.79 5.07,3.49 5.39,8.88 0.32,5.08 0.32,9.52 0.32,34.27l0 27.93c0,15.23 0,27.76 -0.8,34.43 -0.63,4.6 -1.58,8.25 -4.76,8.88 -1.42,0.32 -3.17,0.48 -4.12,0.48 -1.43,0 -1.75,0.47 -1.75,0.95 0,0.95 0.8,1.27 2.54,1.27 4.76,0 14.28,-0.48 15.08,-0.48 0.79,0 10.94,0.48 19.67,0.48 1.74,0 2.38,-0.48 2.38,-1.27 0,-0.48 -0.48,-0.95 -1.9,-0.95 -0.96,0 -4.29,-0.32 -6.51,-0.64 -4.76,-0.63 -5.71,-4.12 -6.19,-8.72 -0.79,-6.67 -0.79,-19.2 -0.79,-34.43l0 -16.03c0,-0.79 0.48,-0.95 0.95,-0.95l26.97 0c0.48,0 1.11,0.32 1.11,0.95 -0.63,33.16 21.9,64.26 59.98,64.26 37.28,0 59.97,-27.61 59.97,-64.42 0,-28.08 -21.58,-59.97 -59.65,-59.97 -34.91,0 -55.22,23.16 -59.66,51.09 0,0.79 -0.64,0.95 -1.11,0.95l-27.61 0c-0.47,0 -0.95,-0.16 -0.95,-0.95l0 -3.81c0,-19.67 0.16,-28.24 0.32,-33.32z"/>
  <path id="4" class="fil2 str9" d="M531.33 127.18c-0.48,0 -0.95,-0.16 -0.95,-0.96l0 -3.33c0,-24.75 0,-29.19 0.31,-34.27 0.32,-5.55 1.59,-8.25 5.87,-9.04 1.91,-0.32 2.86,-0.48 3.97,-0.48 0.64,0 1.27,-0.32 1.27,-0.95 0,-0.95 -0.79,-1.27 -2.54,-1.27 -4.76,0 -14.75,0.48 -15.55,0.48 -0.79,0 -10.79,-0.48 -17.93,-0.48 -1.74,0 -2.53,0.32 -2.53,1.27 0,0.63 0.63,0.95 1.26,0.95 1.43,0 4.13,0.16 5.4,0.48 5.24,1.11 6.5,3.65 6.82,9.04 0.32,5.08 0.32,9.52 0.32,34.27l0 27.93c0,15.23 0,27.76 -0.79,34.43 -0.64,4.6 -1.43,8.09 -4.61,8.72 -1.42,0.32 -3.33,0.64 -4.76,0.64 -0.95,0 -1.26,0.47 -1.26,0.95 0,0.95 0.79,1.27 2.53,1.27 4.76,0 14.76,-0.48 15.55,-0.48 0.8,0 10.79,0.48 19.52,0.48 1.74,0 2.54,-0.48 2.54,-1.27 0,-0.48 -0.32,-0.95 -1.27,-0.95 -1.43,0 -4.92,-0.32 -7.14,-0.64 -4.76,-0.63 -5.71,-4.12 -6.19,-8.72 -0.79,-6.67 -0.79,-19.2 -0.79,-34.43l0 -16.66c0,-0.8 0.47,-0.96 0.95,-0.96l67.27 0c0.48,0 0.95,0.32 0.95,0.96l0 16.66c0,15.23 0,27.76 -0.79,34.43 -0.63,4.6 -1.43,8.09 -4.6,8.72 -1.43,0.32 -3.33,0.64 -4.76,0.64 -0.95,0 -1.27,0.47 -1.27,0.95 0,0.95 0.79,1.27 2.54,1.27 4.76,0 14.75,-0.48 15.55,-0.48 0.79,0 10.79,0.48 19.51,0.48 1.75,0 2.54,-0.48 2.54,-1.27 0,-0.48 -0.32,-0.95 -1.27,-0.95 -1.43,0 -4.92,-0.32 -7.14,-0.64 -4.76,-0.63 -5.71,-4.12 -6.19,-8.72 -0.79,-6.67 -0.79,-19.2 -0.79,-34.43l0 -27.93c0,-24.75 0,-29.19 0.32,-34.27 0.32,-5.55 1.59,-8.25 5.87,-9.04 1.9,-0.32 2.85,-0.48 3.97,-0.48 0.63,0 1.26,-0.32 1.26,-0.95 0,-0.95 -0.79,-1.27 -2.53,-1.27 -4.76,0 -14.76,0.48 -15.55,0.48 -0.8,0 -10.79,-0.48 -17.93,-0.48 -1.75,0 -2.54,0.32 -2.54,1.27 0,0.63 0.63,0.95 1.27,0.95 1.43,0 4.12,0.16 5.39,0.48 5.24,1.11 6.51,3.65 6.83,9.04 0.31,5.08 0.31,9.52 0.31,34.27l0 3.33c0,0.8 -0.47,0.96 -0.95,0.96l-67.27 0z"/>
  <path id="5" class="fil2 str9" d="M720.14 199.05c10.15,0 22.21,-1.11 28.56,-3.65 2.85,-1.27 3.17,-1.59 4.12,-4.6 1.59,-5.4 3.49,-19.2 3.49,-20.31 0,-1.27 -0.32,-2.38 -1.11,-2.38 -0.95,0 -1.27,0.63 -1.59,2.38 -0.47,2.86 -2.53,9.84 -5.87,13.33 -6.34,6.5 -15.7,7.93 -27.6,7.93 -33.96,0 -57.28,-27.76 -57.28,-58.07 0,-16.18 2.7,-30.3 14.28,-41.41 5.55,-5.39 15.39,-11.58 36.49,-11.58 13.96,0 26.18,4.28 31.73,9.04 4.13,3.49 6.67,10 6.67,16.18 0,2.23 0.16,3.34 1.27,3.34 0.95,0 1.27,-0.96 1.43,-3.34 0.15,-2.38 0.15,-11.1 0.47,-16.34 0.32,-5.71 0.79,-7.61 0.79,-8.88 0,-0.95 -0.31,-1.59 -1.42,-1.75 -5.87,-0.79 -10.79,-1.27 -16.82,-2.38 -7.78,-1.43 -16.66,-1.9 -23.01,-1.9 -24.43,0 -38.87,7.46 -48.39,16.97 -14.12,14.13 -17.77,32.69 -17.77,43.32 0,15.07 3.81,33.16 19.2,46.96 12.53,11.27 28.56,17.14 52.36,17.14z"/>
  <path class="fil11" d="M317.96 238.26l0 8.53c0,0.72 0.14,1.18 0.43,1.4 0.3,0.21 0.89,0.32 1.79,0.32l2.16 0 0 1.23 -13.34 0 0 -1.23 2.1 0c0.96,0 1.57,-0.1 1.86,-0.31 0.29,-0.21 0.43,-0.68 0.43,-1.41l0 -18.06c0,-0.66 -0.14,-1.09 -0.42,-1.31 -0.27,-0.22 -1,-0.33 -2.17,-0.33l-1.8 0 0 -1.23 13.34 0 0 1.23 -1.88 0c-1.1,0 -1.79,0.1 -2.07,0.31 -0.29,0.21 -0.43,0.65 -0.43,1.33l0 8.31 5.17 0c0.42,-3.71 2.04,-6.58 4.89,-8.62 2.85,-2.03 5.95,-3.05 9.3,-3.05 3.79,0 7.15,1.14 10.08,3.44 2.93,2.29 4.39,5.29 4.39,8.99 0,3.47 -1.4,6.39 -4.22,8.78 -2.81,2.39 -6.2,3.59 -10.16,3.59 -3.7,0 -6.95,-1.11 -9.73,-3.33 -2.79,-2.22 -4.33,-5.08 -4.63,-8.58l-5.09 0zm28.43 -0.2c0,-4.07 -0.83,-7 -2.5,-8.77 -1.66,-1.78 -3.77,-2.67 -6.33,-2.67 -2.46,0 -4.57,0.85 -6.34,2.53 -1.76,1.68 -2.64,4.55 -2.64,8.59 0,4.14 0.89,7.04 2.67,8.69 1.77,1.65 3.84,2.48 6.18,2.48 2.46,0 4.57,-0.85 6.32,-2.57 1.77,-1.71 2.64,-4.47 2.64,-8.28z"/>
  <path id="1" class="fil11" d="M357.45 225.86l24.51 0 0.42 8.24 -1.49 0c-0.67,-3.06 -1.72,-5 -3.16,-5.8 -1.42,-0.81 -3.23,-1.21 -5.42,-1.21l-4.49 0c-0.95,0 -1.41,0.35 -1.41,1.06l0 18.9c0,0.56 0.17,0.95 0.53,1.15 0.36,0.21 0.94,0.31 1.75,0.31l3.29 0 0 1.23 -14.53 0 0 -1.23 2.57 0c1.21,0 1.82,-0.42 1.82,-1.27l0 -18.96c0,-0.8 -0.65,-1.19 -1.94,-1.19l-2.45 0 0 -1.23z"/>
  <path id="2" class="fil11" d="M385.89 225.86l13.56 0 0 1.23 -2.5 0c-0.87,0 -1.44,0.11 -1.71,0.34 -0.27,0.23 -0.4,0.8 -0.4,1.69l0 7.36 14.4 0 0 -7.36c0,-0.93 -0.13,-1.49 -0.38,-1.71 -0.25,-0.21 -0.84,-0.32 -1.77,-0.32l-2.33 0 0 -1.23 13.56 0 0 1.23 -2.47 0c-0.62,0 -1.05,0.06 -1.3,0.17 -0.26,0.12 -0.46,0.33 -0.62,0.61 -0.08,0.19 -0.13,0.67 -0.13,1.44l0 17.15c0,0.84 0.1,1.33 0.28,1.51 0.37,0.36 1.05,0.54 2.05,0.54l2.19 0 0 1.23 -13.56 0 0 -1.23 2.33 0c0.91,0 1.54,-0.18 1.87,-0.56 0.18,-0.2 0.28,-0.74 0.28,-1.61l0 -8.28 -14.4 0 0 8.41c0,0.84 0.09,1.34 0.26,1.51 0.36,0.36 0.98,0.53 1.85,0.53l2.5 0 0 1.23 -13.56 0 0 -1.23 2.59 0c0.46,0 0.82,-0.07 1.09,-0.21 0.28,-0.13 0.47,-0.33 0.6,-0.59 0.07,-0.18 0.11,-0.63 0.11,-1.37l0 -17.22c0,-0.89 -0.13,-1.46 -0.4,-1.69 -0.26,-0.23 -0.84,-0.34 -1.72,-0.34l-2.27 0 0 -1.23z"/>
  <path id="3" class="fil11" d="M424.46 225.86l25.14 0 0.62 8.07 -1.45 0c-0.57,-2.54 -1.48,-4.31 -2.71,-5.33 -1.23,-1.01 -2.84,-1.51 -4.83,-1.51l-6.21 0c-0.5,0 -0.88,0.1 -1.14,0.3 -0.25,0.2 -0.38,0.52 -0.38,0.94l0 8.48 2.72 0c1.45,0 2.63,-0.39 3.54,-1.18 0.9,-0.78 1.39,-1.99 1.46,-3.62l1.49 0 0 11.08 -1.49 0c-0.07,-1.83 -0.57,-3.15 -1.48,-3.93 -0.93,-0.8 -2.18,-1.2 -3.76,-1.2l-2.48 0 0 9.49c0,0.34 0.15,0.61 0.46,0.79 0.31,0.18 0.82,0.27 1.53,0.27l4.9 0c5.33,0 8.4,-2.55 9.21,-7.67l1.54 0 -0.53 8.9 -26.15 0 0 -1.23 2.17 0c0.85,0 1.44,-0.11 1.78,-0.33 0.35,-0.22 0.52,-0.54 0.52,-0.96l0 -18.89c0,-0.42 -0.15,-0.73 -0.45,-0.94 -0.3,-0.2 -0.78,-0.3 -1.42,-0.3l-2.6 0 0 -1.23z"/>
  <path id="4" class="fil11" d="M466.41 227.09l0 -1.23 14.57 0 0 1.23 -2.49 0c-1.08,0 -1.77,0.11 -2.07,0.34 -0.3,0.22 -0.44,0.66 -0.44,1.31l1.93 0c3.91,0 7.07,0.85 9.48,2.56 2.4,1.7 3.6,3.82 3.6,6.36 0,2.45 -1.14,4.55 -3.43,6.31 -2.27,1.75 -5.8,2.62 -10.59,2.62l-0.99 0 0 0.36c0,0.66 0.17,1.09 0.5,1.28 0.33,0.19 0.9,0.28 1.71,0.28l2.79 0 0 1.23 -14.57 0 0 -1.23 2.74 0c0.84,0 1.43,-0.1 1.77,-0.3 0.33,-0.2 0.49,-0.62 0.49,-1.26l0 -0.36 -0.87 0c-3.05,0 -5.54,-0.33 -7.48,-0.99 -1.94,-0.67 -3.53,-1.69 -4.78,-3.06 -1.25,-1.37 -1.88,-2.97 -1.88,-4.78 0,-2.67 1.22,-4.84 3.65,-6.51 2.43,-1.67 5.81,-2.51 10.14,-2.51l1.22 0 0 -0.45c0,-0.42 -0.17,-0.72 -0.52,-0.92 -0.35,-0.19 -1.02,-0.28 -2.03,-0.28l-2.45 0zm5 18.28l0 -15.41 -1.8 0c-5.53,0 -8.29,2.59 -8.29,7.76 0,2.56 0.74,4.47 2.21,5.74 1.48,1.28 3.5,1.91 6.08,1.91l1.8 0zm4.57 0l2.19 0c5.27,0 7.9,-2.63 7.9,-7.89 0,-5.01 -2.74,-7.52 -8.23,-7.52l-1.86 0 0 15.41z"/>
  <path id="5" class="fil11" d="M496.03 225.86l25.7 0 0.63 9.03 -1.5 0c-0.97,-5.31 -3.51,-7.97 -7.62,-7.97 -0.82,0 -1.39,0.11 -1.7,0.33 -0.31,0.21 -0.46,0.56 -0.46,1.06l0 19.07c0,0.39 0.15,0.68 0.45,0.86 0.3,0.18 0.79,0.27 1.48,0.27l3.2 0 0 1.23 -14.74 0 0 -1.23 3.63 0c0.49,0 0.86,-0.09 1.11,-0.27 0.26,-0.18 0.39,-0.43 0.39,-0.73l0 -19.35c0,-0.41 -0.16,-0.72 -0.49,-0.93 -0.32,-0.2 -0.85,-0.31 -1.57,-0.31 -2.06,0 -3.78,0.74 -5.15,2.22 -1.13,1.21 -1.95,3.13 -2.44,5.75l-1.63 0 0.71 -9.03z"/>
  <path id="6" class="fil11" d="M527.39 225.86l25.15 0 0.62 8.07 -1.45 0c-0.57,-2.54 -1.48,-4.31 -2.71,-5.33 -1.23,-1.01 -2.84,-1.51 -4.83,-1.51l-6.21 0c-0.5,0 -0.88,0.1 -1.14,0.3 -0.25,0.2 -0.39,0.52 -0.39,0.94l0 8.48 2.73 0c1.44,0 2.63,-0.39 3.54,-1.18 0.9,-0.78 1.39,-1.99 1.46,-3.62l1.49 0 0 11.08 -1.49 0c-0.07,-1.83 -0.57,-3.15 -1.49,-3.93 -0.92,-0.8 -2.17,-1.2 -3.76,-1.2l-2.48 0 0 9.49c0,0.34 0.16,0.61 0.47,0.79 0.3,0.18 0.82,0.27 1.52,0.27l4.91 0c5.33,0 8.4,-2.55 9.21,-7.67l1.54 0 -0.53 8.9 -26.16 0 0 -1.23 2.18 0c0.85,0 1.44,-0.11 1.78,-0.33 0.35,-0.22 0.52,-0.54 0.52,-0.96l0 -18.89c0,-0.42 -0.15,-0.73 -0.45,-0.94 -0.3,-0.2 -0.78,-0.3 -1.42,-0.3l-2.61 0 0 -1.23z"/>
  <path id="7" class="fil11" d="M582.84 227.71l1.43 -2.31 1.36 0 0.62 9.62 -1.45 0c-0.95,-2.7 -2.13,-4.7 -3.57,-5.98 -1.77,-1.61 -3.88,-2.42 -6.34,-2.42 -2.66,0 -4.83,0.9 -6.5,2.68 -1.67,1.79 -2.51,4.82 -2.51,9.08 0,3.59 0.96,6.32 2.88,8.2 1.63,1.6 3.91,2.4 6.86,2.4 2.56,0 4.73,-0.63 6.47,-1.87 1.74,-1.25 2.88,-3.13 3.41,-5.64l1.53 0c-0.44,2.84 -1.74,5.04 -3.88,6.56 -2.14,1.54 -4.84,2.3 -8.1,2.3 -2.65,0 -5.08,-0.5 -7.29,-1.5 -2.21,-1 -3.97,-2.44 -5.29,-4.32 -1.33,-1.87 -1.99,-3.93 -1.99,-6.17 0,-2.38 0.68,-4.61 2.05,-6.7 1.37,-2.09 3.11,-3.65 5.25,-4.7 2.12,-1.05 4.41,-1.57 6.88,-1.57 1.37,0 2.7,0.17 3.99,0.52 1.28,0.35 2.68,0.96 4.19,1.82z"/>
  <path id="8" class="fil11" d="M593.18 225.86l25.14 0 0.62 8.07 -1.45 0c-0.57,-2.54 -1.48,-4.31 -2.71,-5.33 -1.23,-1.01 -2.84,-1.51 -4.83,-1.51l-6.21 0c-0.5,0 -0.88,0.1 -1.13,0.3 -0.26,0.2 -0.39,0.52 -0.39,0.94l0 8.48 2.72 0c1.45,0 2.63,-0.39 3.54,-1.18 0.9,-0.78 1.39,-1.99 1.46,-3.62l1.49 0 0 11.08 -1.49 0c-0.07,-1.83 -0.57,-3.15 -1.48,-3.93 -0.92,-0.8 -2.18,-1.2 -3.76,-1.2l-2.48 0 0 9.49c0,0.34 0.15,0.61 0.46,0.79 0.31,0.18 0.82,0.27 1.53,0.27l4.91 0c5.32,0 8.39,-2.55 9.2,-7.67l1.54 0 -0.53 8.9 -26.15 0 0 -1.23 2.17 0c0.85,0 1.44,-0.11 1.78,-0.33 0.35,-0.22 0.52,-0.54 0.52,-0.96l0 -18.89c0,-0.42 -0.15,-0.73 -0.45,-0.94 -0.3,-0.2 -0.77,-0.3 -1.42,-0.3l-2.6 0 0 -1.23z"/>
  <path id="9" class="fil11" d="M624.95 225.86l15.64 0c3.52,0 6.22,0.61 8.08,1.82 1.86,1.2 2.79,2.78 2.79,4.73 0,1.95 -0.86,3.44 -2.57,4.46 -2.36,1.41 -5.27,2.12 -8.72,2.12l-5.65 0 0 8.12c0,0.48 0.15,0.81 0.45,1.02 0.4,0.26 0.94,0.38 1.6,0.38l3.61 0 0 1.23 -15.23 0 0 -1.23 3.17 0c0.64,0 1.1,-0.09 1.39,-0.28 0.3,-0.19 0.44,-0.44 0.44,-0.76l0 -19.01c0,-0.49 -0.18,-0.84 -0.55,-1.05 -0.38,-0.22 -1.08,-0.32 -2.11,-0.32l-2.34 0 0 -1.23zm9.57 11.91l4.3 0c2.73,0 4.7,-0.43 5.91,-1.28 1.2,-0.86 1.81,-2.27 1.81,-4.23 0,-1.38 -0.27,-2.43 -0.81,-3.17 -0.55,-0.74 -1.35,-1.28 -2.39,-1.63 -1.06,-0.36 -2.78,-0.54 -5.18,-0.54 -1.59,0 -2.59,0.11 -3.01,0.34 -0.42,0.22 -0.63,0.61 -0.63,1.18l0 9.33z"/>
  <path id="10" class="fil11" d="M655.84 225.86l16.49 0c3.24,0 5.72,0.54 7.44,1.61 1.72,1.08 2.57,2.43 2.57,4.05 0,1.35 -0.6,2.5 -1.79,3.45 -1.21,0.94 -3.02,1.69 -5.43,2.23 2.99,0.48 5.23,1.23 6.73,2.24 1.5,1.02 2.25,2.31 2.25,3.86 0,1.18 -0.42,2.24 -1.27,3.15 -0.85,0.92 -2.27,1.69 -4.25,2.33 -1.97,0.64 -4.22,0.96 -6.72,0.96l-16.02 0 0 -1.23 2.6 0c0.78,0 1.36,-0.1 1.73,-0.29 0.35,-0.19 0.54,-0.41 0.54,-0.66l0 -19.1c0,-0.45 -0.18,-0.8 -0.54,-1.03 -0.35,-0.23 -0.87,-0.34 -1.55,-0.34l-2.78 0 0 -1.23zm9.43 10.95l5.99 0c1.85,0 3.31,-0.41 4.4,-1.22 1.09,-0.81 1.64,-2.14 1.64,-3.98 0,-1.15 -0.27,-2.04 -0.79,-2.68 -0.51,-0.64 -1.27,-1.11 -2.26,-1.4 -0.99,-0.3 -2.71,-0.44 -5.14,-0.44 -1.73,0 -2.81,0.09 -3.22,0.28 -0.41,0.18 -0.62,0.51 -0.62,0.98l0 8.46zm0 1.22l0 9.19c0,0.43 0.17,0.75 0.51,0.97 0.33,0.21 0.93,0.32 1.8,0.32l3.84 0c2.54,0 4.42,-0.42 5.64,-1.26 1.21,-0.85 1.82,-2.16 1.82,-3.95 0,-1.63 -0.63,-2.92 -1.89,-3.86 -1.26,-0.94 -2.99,-1.41 -5.21,-1.41l-6.51 0z"/>
  <path id="11" class="fil11" d="M697.66 243.84l15.01 -14.85 0 -0.39c0,-0.64 -0.14,-1.05 -0.41,-1.24 -0.27,-0.18 -0.84,-0.27 -1.71,-0.27l-2.31 0 0 -1.23 13.38 0 0 1.23 -2.35 0c-0.65,0 -1.14,0.09 -1.5,0.28 -0.36,0.18 -0.54,0.83 -0.54,1.94l0 17.15c0,0.69 0.05,1.14 0.14,1.34 0.1,0.19 0.33,0.37 0.72,0.5 0.39,0.14 0.87,0.21 1.45,0.21l2.08 0 0 1.23 -13.38 0 0 -1.23 2.31 0c0.91,0 1.5,-0.14 1.75,-0.43 0.24,-0.29 0.37,-0.87 0.37,-1.74l0 -15.11 -15.01 14.95c0,0.66 0.01,1.12 0.04,1.37 0.03,0.27 0.23,0.49 0.6,0.68 0.36,0.19 0.85,0.28 1.47,0.28l2.5 0 0 1.23 -13.56 0 0 -1.23 2.59 0c0.7,0 1.17,-0.14 1.42,-0.43 0.25,-0.29 0.38,-0.87 0.38,-1.74l0 -17.22c0,-0.86 -0.13,-1.42 -0.37,-1.66 -0.24,-0.25 -0.83,-0.37 -1.76,-0.37l-2.26 0 0 -1.23 13.56 0 0 1.23 -2.5 0c-0.89,0 -1.47,0.11 -1.72,0.35 -0.26,0.24 -0.39,0.8 -0.39,1.68l0 14.72z"/>
  <path id="12" class="fil11" d="M750.28 227.71l1.43 -2.31 1.36 0 0.62 9.62 -1.45 0c-0.95,-2.7 -2.13,-4.7 -3.56,-5.98 -1.77,-1.61 -3.89,-2.42 -6.35,-2.42 -2.66,0 -4.82,0.9 -6.5,2.68 -1.67,1.79 -2.51,4.82 -2.51,9.08 0,3.59 0.96,6.32 2.88,8.2 1.63,1.6 3.91,2.4 6.86,2.4 2.57,0 4.73,-0.63 6.47,-1.87 1.74,-1.25 2.88,-3.13 3.41,-5.64l1.54 0c-0.45,2.84 -1.74,5.04 -3.89,6.56 -2.14,1.54 -4.84,2.3 -8.1,2.3 -2.65,0 -5.08,-0.5 -7.29,-1.5 -2.21,-1 -3.97,-2.44 -5.29,-4.32 -1.33,-1.87 -1.99,-3.93 -1.99,-6.17 0,-2.38 0.68,-4.61 2.05,-6.7 1.37,-2.09 3.11,-3.65 5.25,-4.7 2.13,-1.05 4.42,-1.57 6.88,-1.57 1.37,0 2.7,0.17 3.99,0.52 1.28,0.35 2.68,0.96 4.19,1.82z"/>
  <g>
   <path id="13" class="fil2 str10" d="M317.96 238.26l0 8.53c0,0.72 0.14,1.18 0.43,1.4 0.3,0.21 0.89,0.32 1.79,0.32l2.16 0 0 1.23 -13.34 0 0 -1.23 2.1 0c0.96,0 1.57,-0.1 1.86,-0.31 0.29,-0.21 0.43,-0.68 0.43,-1.41l0 -18.06c0,-0.66 -0.14,-1.09 -0.42,-1.31 -0.27,-0.22 -1,-0.33 -2.17,-0.33l-1.8 0 0 -1.23 13.34 0 0 1.23 -1.88 0c-1.1,0 -1.79,0.1 -2.07,0.31 -0.29,0.21 -0.43,0.65 -0.43,1.33l0 8.31 5.17 0c0.42,-3.71 2.04,-6.58 4.89,-8.62 2.85,-2.03 5.95,-3.05 9.3,-3.05 3.79,0 7.15,1.14 10.08,3.44 2.93,2.29 4.39,5.29 4.39,8.99 0,3.47 -1.4,6.39 -4.22,8.78 -2.81,2.39 -6.2,3.59 -10.16,3.59 -3.7,0 -6.95,-1.11 -9.73,-3.33 -2.79,-2.22 -4.33,-5.08 -4.63,-8.58l-5.09 0zm28.43 -0.2c0,-4.07 -0.83,-7 -2.5,-8.77 -1.66,-1.78 -3.77,-2.67 -6.33,-2.67 -2.46,0 -4.57,0.85 -6.34,2.53 -1.76,1.68 -2.64,4.55 -2.64,8.59 0,4.14 0.89,7.04 2.67,8.69 1.77,1.65 3.84,2.48 6.18,2.48 2.46,0 4.57,-0.85 6.32,-2.57 1.77,-1.71 2.64,-4.47 2.64,-8.28z"/>
  </g>
  <g>
   <path id="14" class="fil2 str10" d="M357.45 225.86l24.51 0 0.42 8.24 -1.49 0c-0.67,-3.06 -1.72,-5 -3.16,-5.8 -1.42,-0.81 -3.23,-1.21 -5.42,-1.21l-4.49 0c-0.95,0 -1.41,0.35 -1.41,1.06l0 18.9c0,0.56 0.17,0.95 0.53,1.15 0.36,0.21 0.94,0.31 1.75,0.31l3.29 0 0 1.23 -14.53 0 0 -1.23 2.57 0c1.21,0 1.82,-0.42 1.82,-1.27l0 -18.96c0,-0.8 -0.65,-1.19 -1.94,-1.19l-2.45 0 0 -1.23z"/>
  </g>
  <g>
   <path id="15" class="fil2 str10" d="M385.89 225.86l13.56 0 0 1.23 -2.5 0c-0.87,0 -1.44,0.11 -1.71,0.34 -0.27,0.23 -0.4,0.8 -0.4,1.69l0 7.36 14.4 0 0 -7.36c0,-0.93 -0.13,-1.49 -0.38,-1.71 -0.25,-0.21 -0.84,-0.32 -1.77,-0.32l-2.33 0 0 -1.23 13.56 0 0 1.23 -2.47 0c-0.62,0 -1.05,0.06 -1.3,0.17 -0.26,0.12 -0.46,0.33 -0.62,0.61 -0.08,0.19 -0.13,0.67 -0.13,1.44l0 17.15c0,0.84 0.1,1.33 0.28,1.51 0.37,0.36 1.05,0.54 2.05,0.54l2.19 0 0 1.23 -13.56 0 0 -1.23 2.33 0c0.91,0 1.54,-0.18 1.87,-0.56 0.18,-0.2 0.28,-0.74 0.28,-1.61l0 -8.28 -14.4 0 0 8.41c0,0.84 0.09,1.34 0.26,1.51 0.36,0.36 0.98,0.53 1.85,0.53l2.5 0 0 1.23 -13.56 0 0 -1.23 2.59 0c0.46,0 0.82,-0.07 1.09,-0.21 0.28,-0.13 0.47,-0.33 0.6,-0.59 0.07,-0.18 0.11,-0.63 0.11,-1.37l0 -17.22c0,-0.89 -0.13,-1.46 -0.4,-1.69 -0.26,-0.23 -0.84,-0.34 -1.72,-0.34l-2.27 0 0 -1.23z"/>
  </g>
  <g>
   <path id="16" class="fil2 str10" d="M424.46 225.86l25.14 0 0.62 8.07 -1.45 0c-0.57,-2.54 -1.48,-4.31 -2.71,-5.33 -1.23,-1.01 -2.84,-1.51 -4.83,-1.51l-6.21 0c-0.5,0 -0.88,0.1 -1.14,0.3 -0.25,0.2 -0.38,0.52 -0.38,0.94l0 8.48 2.72 0c1.45,0 2.63,-0.39 3.54,-1.18 0.9,-0.78 1.39,-1.99 1.46,-3.62l1.49 0 0 11.08 -1.49 0c-0.07,-1.83 -0.57,-3.15 -1.48,-3.93 -0.93,-0.8 -2.18,-1.2 -3.76,-1.2l-2.48 0 0 9.49c0,0.34 0.15,0.61 0.46,0.79 0.31,0.18 0.82,0.27 1.53,0.27l4.9 0c5.33,0 8.4,-2.55 9.21,-7.67l1.54 0 -0.53 8.9 -26.15 0 0 -1.23 2.17 0c0.85,0 1.44,-0.11 1.78,-0.33 0.35,-0.22 0.52,-0.54 0.52,-0.96l0 -18.89c0,-0.42 -0.15,-0.73 -0.45,-0.94 -0.3,-0.2 -0.78,-0.3 -1.42,-0.3l-2.6 0 0 -1.23z"/>
  </g>
  <g>
   <path id="17" class="fil2 str10" d="M466.41 227.09l0 -1.23 14.57 0 0 1.23 -2.49 0c-1.08,0 -1.77,0.11 -2.07,0.34 -0.3,0.22 -0.44,0.66 -0.44,1.31l1.93 0c3.91,0 7.07,0.85 9.48,2.56 2.4,1.7 3.6,3.82 3.6,6.36 0,2.45 -1.14,4.55 -3.43,6.31 -2.27,1.75 -5.8,2.62 -10.59,2.62l-0.99 0 0 0.36c0,0.66 0.17,1.09 0.5,1.28 0.33,0.19 0.9,0.28 1.71,0.28l2.79 0 0 1.23 -14.57 0 0 -1.23 2.74 0c0.84,0 1.43,-0.1 1.77,-0.3 0.33,-0.2 0.49,-0.62 0.49,-1.26l0 -0.36 -0.87 0c-3.05,0 -5.54,-0.33 -7.48,-0.99 -1.94,-0.67 -3.53,-1.69 -4.78,-3.06 -1.25,-1.37 -1.88,-2.97 -1.88,-4.78 0,-2.67 1.22,-4.84 3.65,-6.51 2.43,-1.67 5.81,-2.51 10.14,-2.51l1.22 0 0 -0.45c0,-0.42 -0.17,-0.72 -0.52,-0.92 -0.35,-0.19 -1.02,-0.28 -2.03,-0.28l-2.45 0zm5 18.28l0 -15.41 -1.8 0c-5.53,0 -8.29,2.59 -8.29,7.76 0,2.56 0.74,4.47 2.21,5.74 1.48,1.28 3.5,1.91 6.08,1.91l1.8 0zm4.57 0l2.19 0c5.27,0 7.9,-2.63 7.9,-7.89 0,-5.01 -2.74,-7.52 -8.23,-7.52l-1.86 0 0 15.41z"/>
  </g>
  <g>
   <path id="18" class="fil2 str10" d="M496.03 225.86l25.7 0 0.63 9.03 -1.5 0c-0.97,-5.31 -3.51,-7.97 -7.62,-7.97 -0.82,0 -1.39,0.11 -1.7,0.33 -0.31,0.21 -0.46,0.56 -0.46,1.06l0 19.07c0,0.39 0.15,0.68 0.45,0.86 0.3,0.18 0.79,0.27 1.48,0.27l3.2 0 0 1.23 -14.74 0 0 -1.23 3.63 0c0.49,0 0.86,-0.09 1.11,-0.27 0.26,-0.18 0.39,-0.43 0.39,-0.73l0 -19.35c0,-0.41 -0.16,-0.72 -0.49,-0.93 -0.32,-0.2 -0.85,-0.31 -1.57,-0.31 -2.06,0 -3.78,0.74 -5.15,2.22 -1.13,1.21 -1.95,3.13 -2.44,5.75l-1.63 0 0.71 -9.03z"/>
  </g>
  <g>
   <path id="19" class="fil2 str10" d="M527.39 225.86l25.15 0 0.62 8.07 -1.45 0c-0.57,-2.54 -1.48,-4.31 -2.71,-5.33 -1.23,-1.01 -2.84,-1.51 -4.83,-1.51l-6.21 0c-0.5,0 -0.88,0.1 -1.14,0.3 -0.25,0.2 -0.39,0.52 -0.39,0.94l0 8.48 2.73 0c1.44,0 2.63,-0.39 3.54,-1.18 0.9,-0.78 1.39,-1.99 1.46,-3.62l1.49 0 0 11.08 -1.49 0c-0.07,-1.83 -0.57,-3.15 -1.49,-3.93 -0.92,-0.8 -2.17,-1.2 -3.76,-1.2l-2.48 0 0 9.49c0,0.34 0.16,0.61 0.47,0.79 0.3,0.18 0.82,0.27 1.52,0.27l4.91 0c5.33,0 8.4,-2.55 9.21,-7.67l1.54 0 -0.53 8.9 -26.16 0 0 -1.23 2.18 0c0.85,0 1.44,-0.11 1.78,-0.33 0.35,-0.22 0.52,-0.54 0.52,-0.96l0 -18.89c0,-0.42 -0.15,-0.73 -0.45,-0.94 -0.3,-0.2 -0.78,-0.3 -1.42,-0.3l-2.61 0 0 -1.23z"/>
  </g>
  <g>
   <path id="20" class="fil2 str10" d="M582.84 227.71l1.43 -2.31 1.36 0 0.62 9.62 -1.45 0c-0.95,-2.7 -2.13,-4.7 -3.57,-5.98 -1.77,-1.61 -3.88,-2.42 -6.34,-2.42 -2.66,0 -4.83,0.9 -6.5,2.68 -1.67,1.79 -2.51,4.82 -2.51,9.08 0,3.59 0.96,6.32 2.88,8.2 1.63,1.6 3.91,2.4 6.86,2.4 2.56,0 4.73,-0.63 6.47,-1.87 1.74,-1.25 2.88,-3.13 3.41,-5.64l1.53 0c-0.44,2.84 -1.74,5.04 -3.88,6.56 -2.14,1.54 -4.84,2.3 -8.1,2.3 -2.65,0 -5.08,-0.5 -7.29,-1.5 -2.21,-1 -3.97,-2.44 -5.29,-4.32 -1.33,-1.87 -1.99,-3.93 -1.99,-6.17 0,-2.38 0.68,-4.61 2.05,-6.7 1.37,-2.09 3.11,-3.65 5.25,-4.7 2.12,-1.05 4.41,-1.57 6.88,-1.57 1.37,0 2.7,0.17 3.99,0.52 1.28,0.35 2.68,0.96 4.19,1.82z"/>
  </g>
  <g>
   <path id="21" class="fil2 str10" d="M593.18 225.86l25.14 0 0.62 8.07 -1.45 0c-0.57,-2.54 -1.48,-4.31 -2.71,-5.33 -1.23,-1.01 -2.84,-1.51 -4.83,-1.51l-6.21 0c-0.5,0 -0.88,0.1 -1.13,0.3 -0.26,0.2 -0.39,0.52 -0.39,0.94l0 8.48 2.72 0c1.45,0 2.63,-0.39 3.54,-1.18 0.9,-0.78 1.39,-1.99 1.46,-3.62l1.49 0 0 11.08 -1.49 0c-0.07,-1.83 -0.57,-3.15 -1.48,-3.93 -0.92,-0.8 -2.18,-1.2 -3.76,-1.2l-2.48 0 0 9.49c0,0.34 0.15,0.61 0.46,0.79 0.31,0.18 0.82,0.27 1.53,0.27l4.91 0c5.32,0 8.39,-2.55 9.2,-7.67l1.54 0 -0.53 8.9 -26.15 0 0 -1.23 2.17 0c0.85,0 1.44,-0.11 1.78,-0.33 0.35,-0.22 0.52,-0.54 0.52,-0.96l0 -18.89c0,-0.42 -0.15,-0.73 -0.45,-0.94 -0.3,-0.2 -0.77,-0.3 -1.42,-0.3l-2.6 0 0 -1.23z"/>
  </g>
  <g>
   <path id="22" class="fil2 str10" d="M624.95 225.86l15.64 0c3.52,0 6.22,0.61 8.08,1.82 1.86,1.2 2.79,2.78 2.79,4.73 0,1.95 -0.86,3.44 -2.57,4.46 -2.36,1.41 -5.27,2.12 -8.72,2.12l-5.65 0 0 8.12c0,0.48 0.15,0.81 0.45,1.02 0.4,0.26 0.94,0.38 1.6,0.38l3.61 0 0 1.23 -15.23 0 0 -1.23 3.17 0c0.64,0 1.1,-0.09 1.39,-0.28 0.3,-0.19 0.44,-0.44 0.44,-0.76l0 -19.01c0,-0.49 -0.18,-0.84 -0.55,-1.05 -0.38,-0.22 -1.08,-0.32 -2.11,-0.32l-2.34 0 0 -1.23zm9.57 11.91l4.3 0c2.73,0 4.7,-0.43 5.91,-1.28 1.2,-0.86 1.81,-2.27 1.81,-4.23 0,-1.38 -0.27,-2.43 -0.81,-3.17 -0.55,-0.74 -1.35,-1.28 -2.39,-1.63 -1.06,-0.36 -2.78,-0.54 -5.18,-0.54 -1.59,0 -2.59,0.11 -3.01,0.34 -0.42,0.22 -0.63,0.61 -0.63,1.18l0 9.33z"/>
  </g>
  <g>
   <path id="23" class="fil2 str10" d="M655.84 225.86l16.49 0c3.24,0 5.72,0.54 7.44,1.61 1.72,1.08 2.57,2.43 2.57,4.05 0,1.35 -0.6,2.5 -1.79,3.45 -1.21,0.94 -3.02,1.69 -5.43,2.23 2.99,0.48 5.23,1.23 6.73,2.24 1.5,1.02 2.25,2.31 2.25,3.86 0,1.18 -0.42,2.24 -1.27,3.15 -0.85,0.92 -2.27,1.69 -4.25,2.33 -1.97,0.64 -4.22,0.96 -6.72,0.96l-16.02 0 0 -1.23 2.6 0c0.78,0 1.36,-0.1 1.73,-0.29 0.35,-0.19 0.54,-0.41 0.54,-0.66l0 -19.1c0,-0.45 -0.18,-0.8 -0.54,-1.03 -0.35,-0.23 -0.87,-0.34 -1.55,-0.34l-2.78 0 0 -1.23zm9.43 10.95l5.99 0c1.85,0 3.31,-0.41 4.4,-1.22 1.09,-0.81 1.64,-2.14 1.64,-3.98 0,-1.15 -0.27,-2.04 -0.79,-2.68 -0.51,-0.64 -1.27,-1.11 -2.26,-1.4 -0.99,-0.3 -2.71,-0.44 -5.14,-0.44 -1.73,0 -2.81,0.09 -3.22,0.28 -0.41,0.18 -0.62,0.51 -0.62,0.98l0 8.46zm0 1.22l0 9.19c0,0.43 0.17,0.75 0.51,0.97 0.33,0.21 0.93,0.32 1.8,0.32l3.84 0c2.54,0 4.42,-0.42 5.64,-1.26 1.21,-0.85 1.82,-2.16 1.82,-3.95 0,-1.63 -0.63,-2.92 -1.89,-3.86 -1.26,-0.94 -2.99,-1.41 -5.21,-1.41l-6.51 0z"/>
  </g>
  <g>
   <path id="24" class="fil2 str10" d="M697.66 243.84l15.01 -14.85 0 -0.39c0,-0.64 -0.14,-1.05 -0.41,-1.24 -0.27,-0.18 -0.84,-0.27 -1.71,-0.27l-2.31 0 0 -1.23 13.38 0 0 1.23 -2.35 0c-0.65,0 -1.14,0.09 -1.5,0.28 -0.36,0.18 -0.54,0.83 -0.54,1.94l0 17.15c0,0.69 0.05,1.14 0.14,1.34 0.1,0.19 0.33,0.37 0.72,0.5 0.39,0.14 0.87,0.21 1.45,0.21l2.08 0 0 1.23 -13.38 0 0 -1.23 2.31 0c0.91,0 1.5,-0.14 1.75,-0.43 0.24,-0.29 0.37,-0.87 0.37,-1.74l0 -15.11 -15.01 14.95c0,0.66 0.01,1.12 0.04,1.37 0.03,0.27 0.23,0.49 0.6,0.68 0.36,0.19 0.85,0.28 1.47,0.28l2.5 0 0 1.23 -13.56 0 0 -1.23 2.59 0c0.7,0 1.17,-0.14 1.42,-0.43 0.25,-0.29 0.38,-0.87 0.38,-1.74l0 -17.22c0,-0.86 -0.13,-1.42 -0.37,-1.66 -0.24,-0.25 -0.83,-0.37 -1.76,-0.37l-2.26 0 0 -1.23 13.56 0 0 1.23 -2.5 0c-0.89,0 -1.47,0.11 -1.72,0.35 -0.26,0.24 -0.39,0.8 -0.39,1.68l0 14.72z"/>
  </g>
  <g>
   <path id="25" class="fil2 str10" d="M750.28 227.71l1.43 -2.31 1.36 0 0.62 9.62 -1.45 0c-0.95,-2.7 -2.13,-4.7 -3.56,-5.98 -1.77,-1.61 -3.89,-2.42 -6.35,-2.42 -2.66,0 -4.82,0.9 -6.5,2.68 -1.67,1.79 -2.51,4.82 -2.51,9.08 0,3.59 0.96,6.32 2.88,8.2 1.63,1.6 3.91,2.4 6.86,2.4 2.57,0 4.73,-0.63 6.47,-1.87 1.74,-1.25 2.88,-3.13 3.41,-5.64l1.54 0c-0.45,2.84 -1.74,5.04 -3.89,6.56 -2.14,1.54 -4.84,2.3 -8.1,2.3 -2.65,0 -5.08,-0.5 -7.29,-1.5 -2.21,-1 -3.97,-2.44 -5.29,-4.32 -1.33,-1.87 -1.99,-3.93 -1.99,-6.17 0,-2.38 0.68,-4.61 2.05,-6.7 1.37,-2.09 3.11,-3.65 5.25,-4.7 2.13,-1.05 4.42,-1.57 6.88,-1.57 1.37,0 2.7,0.17 3.99,0.52 1.28,0.35 2.68,0.96 4.19,1.82z"/>
  </g>
  <polygon class="fil12" points="146.68,227.21 143.02,251.47 139.43,227.43 "/>
 </g>
</svg>
